<svg width="24" height="24" viewBox="0 0 24 24" fill="none" xmlns="http://www.w3.org/2000/svg">
  <defs>
    <linearGradient id="moonGradient" x1="0%" y1="0%" x2="100%" y2="100%">
      <stop offset="0%" style="stop-color:#00d4ff;stop-opacity:1" />
      <stop offset="100%" style="stop-color:#7b2cbf;stop-opacity:1" />
    </linearGradient>
    <filter id="glow">
      <feGaussianBlur stdDeviation="2" result="coloredBlur"/>
      <feMerge> 
        <feMergeNode in="coloredBlur"/>
        <feMergeNode in="SourceGraphic"/>
      </feMerge>
    </filter>
  </defs>
  
  <!-- Main moon shape -->
  <path d="M12 2C6.48 2 2 6.48 2 12s4.48 10 10 10c1.1 0 2-.9 2-2 0-.51-.19-1-.51-1.36-.32-.36-.51-.85-.51-1.36 0-1.1.9-2 2-2h1.59c.89 0 1.34-1.08.71-1.71C17.42 13.17 18 11.64 18 10c0-3.31-2.69-6-6-6z" 
        fill="url(#moonGradient)" 
        filter="url(#glow)"/>
  
  <!-- Stars around the moon -->
  <circle cx="4" cy="6" r="0.5" fill="#00d4ff" opacity="0.8">
    <animate attributeName="opacity" values="0.8;0.3;0.8" dur="2s" repeatCount="indefinite"/>
  </circle>
  <circle cx="20" cy="8" r="0.3" fill="#ff006e" opacity="0.6">
    <animate attributeName="opacity" values="0.6;0.2;0.6" dur="1.5s" repeatCount="indefinite"/>
  </circle>
  <circle cx="18" cy="4" r="0.4" fill="#7b2cbf" opacity="0.7">
    <animate attributeName="opacity" values="0.7;0.4;0.7" dur="2.5s" repeatCount="indefinite"/>
  </circle>
  
  <!-- Glow effect -->
  <circle cx="12" cy="12" r="8" fill="none" stroke="#00d4ff" stroke-width="0.5" opacity="0.3">
    <animate attributeName="r" values="8;9;8" dur="3s" repeatCount="indefinite"/>
    <animate attributeName="opacity" values="0.3;0.6;0.3" dur="3s" repeatCount="indefinite"/>
  </circle>
</svg>
